<svg width="29" height="29" viewBox="0 0 29 29" fill="none" xmlns="http://www.w3.org/2000/svg">
<path d="M27.5235 12.5106L20.5063 17.837L23.1866 26.428C23.2563 26.6554 23.2561 26.8998 23.186 27.1271C23.1159 27.3543 22.9794 27.553 22.7956 27.6952C22.61 27.8352 22.3867 27.9104 22.1577 27.91C21.9285 27.9115 21.7049 27.8362 21.5198 27.6952L14.5026 22.3902L7.4802 27.7113C7.29587 27.8522 7.07333 27.9282 6.84484 27.9282C6.61636 27.9282 6.39382 27.8522 6.20949 27.7113C6.02423 27.5703 5.88624 27.372 5.81513 27.1445C5.74402 26.9171 5.7434 26.672 5.81336 26.4441L8.49368 17.8531L1.47647 12.5106C1.29617 12.3728 1.16126 12.18 1.09031 11.9588C1.01936 11.7377 1.01588 11.499 1.08034 11.2756C1.15218 11.0493 1.28996 10.8521 1.47444 10.7116C1.65892 10.571 1.88087 10.4941 2.10926 10.4917H10.8036L13.4839 1.90069C13.5564 1.67578 13.6947 1.48028 13.8793 1.34178C14.0639 1.20329 14.2855 1.12878 14.5128 1.12878C14.7402 1.12878 14.9618 1.20329 15.1464 1.34178C15.331 1.48028 15.4693 1.67578 15.5418 1.90069L18.2221 10.4917H26.8856C27.1088 10.4968 27.3251 10.5739 27.5047 10.7126C27.6842 10.8512 27.8182 11.0445 27.8881 11.2659C27.9581 11.4872 27.9606 11.7258 27.8953 11.9487C27.83 12.1716 27.7001 12.3679 27.5235 12.5106V12.5106Z" stroke="#352166" stroke-width="2" stroke-miterlimit="10"/>
</svg>
