<svg width="30" height="37" viewBox="0 0 30 37" fill="none" xmlns="http://www.w3.org/2000/svg">
<path d="M15.0293 1C7.2956 1 1 7.2956 1 15.0294C1 15.9099 1.08071 16.7977 1.24948 17.6635C1.25681 17.7149 1.28616 17.869 1.34486 18.1331C1.55765 19.0797 1.87317 20.0115 2.28407 20.8994C3.7956 24.4581 7.1195 29.9245 14.413 35.7799C14.5964 35.9266 14.8166 36 15.0367 36C15.2568 36 15.4769 35.9266 15.6604 35.7799C22.9465 29.9245 26.2778 24.4581 27.7893 20.8994C28.2002 20.0115 28.5157 19.087 28.7285 18.1331C28.7872 17.869 28.8166 17.7149 28.8239 17.6635C28.9853 16.7977 29.0734 15.9099 29.0734 15.0294C29.0587 7.2956 22.7631 1 15.0293 1ZM26.8574 17.3187C26.8574 17.3333 26.8501 17.348 26.8501 17.3627C26.8428 17.3994 26.8207 17.5094 26.7841 17.6782C26.7841 17.6855 26.7841 17.6855 26.7841 17.6929C26.6006 18.5147 26.3291 19.3145 25.9696 20.0849C25.9623 20.0922 25.9623 20.1069 25.9549 20.1143C24.5828 23.3648 21.5744 28.3249 15.0293 33.7327C8.48427 28.3249 5.47589 23.3648 4.10377 20.1143C4.09644 20.1069 4.09644 20.0922 4.0891 20.0849C3.7369 19.3218 3.46541 18.5147 3.27463 17.6929C3.27463 17.6855 3.27463 17.6855 3.27463 17.6782C3.23061 17.5094 3.21593 17.3994 3.20859 17.3627C3.20859 17.348 3.20126 17.3333 3.20126 17.3113C3.05451 16.5556 2.98113 15.7925 2.98113 15.022C2.98113 8.38155 8.38889 2.97379 15.0293 2.97379C21.6698 2.97379 27.0776 8.38155 27.0776 15.022C27.0776 15.7998 27.0042 16.5702 26.8574 17.3187Z" fill="#352166"/>
<path d="M15.0294 6.27568C10.1205 6.27568 6.12159 10.2746 6.12159 15.1834C6.12159 20.0922 10.1205 24.0912 15.0294 24.0912C19.9382 24.0912 23.9371 20.0922 23.9371 15.1834C23.9371 10.2746 19.9382 6.27568 15.0294 6.27568ZM15.0294 22.1101C11.2065 22.1101 8.10273 18.9989 8.10273 15.1834C8.10273 11.3679 11.2138 8.25681 15.0294 8.25681C18.8449 8.25681 21.956 11.3679 21.956 15.1834C21.956 18.9989 18.8522 22.1101 15.0294 22.1101Z" fill="#352166"/>
<path d="M15.0293 1C7.2956 1 1 7.2956 1 15.0294C1 15.9099 1.08071 16.7977 1.24948 17.6635C1.25681 17.7149 1.28616 17.869 1.34486 18.1331C1.55765 19.0797 1.87317 20.0115 2.28407 20.8994C3.7956 24.4581 7.1195 29.9245 14.413 35.7799C14.5964 35.9266 14.8166 36 15.0367 36C15.2568 36 15.4769 35.9266 15.6604 35.7799C22.9465 29.9245 26.2778 24.4581 27.7893 20.8994C28.2002 20.0115 28.5157 19.087 28.7285 18.1331C28.7872 17.869 28.8166 17.7149 28.8239 17.6635C28.9853 16.7977 29.0734 15.9099 29.0734 15.0294C29.0587 7.2956 22.7631 1 15.0293 1ZM26.8574 17.3187C26.8574 17.3333 26.8501 17.348 26.8501 17.3627C26.8428 17.3994 26.8207 17.5094 26.7841 17.6782C26.7841 17.6855 26.7841 17.6855 26.7841 17.6929C26.6006 18.5147 26.3291 19.3145 25.9696 20.0849C25.9623 20.0922 25.9623 20.1069 25.9549 20.1143C24.5828 23.3648 21.5744 28.3249 15.0293 33.7327C8.48427 28.3249 5.47589 23.3648 4.10377 20.1143C4.09644 20.1069 4.09644 20.0922 4.0891 20.0849C3.7369 19.3218 3.46541 18.5147 3.27463 17.6929C3.27463 17.6855 3.27463 17.6855 3.27463 17.6782C3.23061 17.5094 3.21593 17.3994 3.20859 17.3627C3.20859 17.348 3.20126 17.3333 3.20126 17.3113C3.05451 16.5556 2.98113 15.7925 2.98113 15.022C2.98113 8.38155 8.38889 2.97379 15.0293 2.97379C21.6698 2.97379 27.0776 8.38155 27.0776 15.022C27.0776 15.7998 27.0042 16.5702 26.8574 17.3187Z" stroke="#352166"/>
<path d="M15.0294 6.27568C10.1205 6.27568 6.12159 10.2746 6.12159 15.1834C6.12159 20.0922 10.1205 24.0912 15.0294 24.0912C19.9382 24.0912 23.9371 20.0922 23.9371 15.1834C23.9371 10.2746 19.9382 6.27568 15.0294 6.27568ZM15.0294 22.1101C11.2065 22.1101 8.10273 18.9989 8.10273 15.1834C8.10273 11.3679 11.2138 8.25681 15.0294 8.25681C18.8449 8.25681 21.956 11.3679 21.956 15.1834C21.956 18.9989 18.8522 22.1101 15.0294 22.1101Z" stroke="#352166"/>
</svg>
