<svg width="29" height="29" viewBox="0 0 29 29" fill="none" xmlns="http://www.w3.org/2000/svg">
<g clip-path="url(#clip0)">
<path d="M2.68556 7.48662L0.293871 27.7454C0.278427 27.8666 0.289515 27.9897 0.326355 28.1061C0.363195 28.2225 0.424892 28.3293 0.507106 28.4191C0.585338 28.5112 0.682629 28.585 0.792147 28.6351C0.901665 28.6853 1.02075 28.7107 1.14105 28.7095H27.8589C27.9799 28.7104 28.0998 28.6849 28.2102 28.6347C28.3206 28.5846 28.4189 28.5111 28.4986 28.4191C28.5785 28.328 28.6383 28.2208 28.674 28.1047C28.7098 27.9885 28.7207 27.8661 28.706 27.7454L26.3143 7.48662C26.289 7.2782 26.1888 7.08634 26.0328 6.94724C25.8767 6.80814 25.6755 6.73142 25.4672 6.73156H21.6404C21.4344 4.95562 20.5883 3.3178 19.2629 2.12915C17.9375 0.940497 16.2251 0.283813 14.451 0.283813C12.6768 0.283813 10.9644 0.940497 9.63899 2.12915C8.3136 3.3178 7.46754 4.95562 7.26148 6.73156H3.53274C3.32439 6.73142 3.1232 6.80814 2.96713 6.94724C2.81106 7.08634 2.7109 7.2782 2.68556 7.48662V7.48662ZM14.4538 2.00955C15.773 2.01285 17.0478 2.49012 18.0492 3.35562C19.0506 4.22111 19.713 5.4181 19.9173 6.73156H8.96736C9.16946 5.4171 9.83117 4.21875 10.833 3.35283C11.8349 2.48692 13.111 2.01049 14.4308 2.00955H14.4538ZM8.06831 8.45077H24.7064L26.8964 26.9903H2.11502L4.305 8.45077H8.06831Z" fill="#352166"/>
<path d="M27.8582 29.0002H1.15193C0.989147 29.0014 0.827949 28.9679 0.678948 28.9018C0.529947 28.8358 0.396523 28.7386 0.287461 28.6168C0.179455 28.4955 0.0979826 28.3527 0.0483377 28.1976C-0.00130731 28.0425 -0.0180134 27.8786 -0.000694859 27.7166L2.40252 7.452C2.4391 7.17078 2.57651 6.91276 2.78883 6.72659C3.00115 6.54043 3.27373 6.43898 3.55515 6.44139H7.01302C7.2849 4.64909 8.18481 3.01422 9.54969 1.833C10.9146 0.651767 12.6541 0.00231934 14.4532 0.00231934C16.2523 0.00231934 17.9918 0.651767 19.3567 1.833C20.7216 3.01422 21.6215 4.64909 21.8934 6.44139H25.4665C25.7479 6.43898 26.0205 6.54043 26.2328 6.72659C26.4452 6.91276 26.5826 7.17078 26.6191 7.452L29.0166 27.7108C29.0345 27.8737 29.018 28.0386 28.9681 28.1946C28.9183 28.3507 28.8362 28.4943 28.7273 28.6161C28.6185 28.7379 28.4852 28.8351 28.3364 28.9013C28.1876 28.9675 28.0266 29.0012 27.864 29.0002H27.8582ZM3.5321 7.0222C3.39225 7.02081 3.25668 7.07072 3.15065 7.16262C3.04461 7.25452 2.97536 7.38214 2.95578 7.5217L0.575617 27.7805C0.564298 27.8607 0.570838 27.9424 0.594762 28.0198C0.618685 28.0971 0.659393 28.1682 0.713932 28.2277C0.767159 28.2871 0.832009 28.3349 0.904408 28.3678C0.976807 28.4008 1.05519 28.4184 1.13464 28.4194H27.8582C27.9386 28.4192 28.0181 28.402 28.0916 28.369C28.165 28.336 28.2308 28.2879 28.2847 28.2277C28.3363 28.1664 28.3747 28.0951 28.3975 28.0181C28.4203 27.9411 28.427 27.8602 28.4172 27.7805L26.0255 7.55074C26.006 7.41118 25.9367 7.28356 25.8307 7.19166C25.7246 7.09976 25.5891 7.04985 25.4492 7.05124H21.3805L21.3516 6.79568C21.1501 5.09379 20.3364 3.52544 19.0645 2.38756C17.7927 1.24968 16.151 0.621248 14.4503 0.621248C12.7496 0.621248 11.108 1.24968 9.83612 2.38756C8.56428 3.52544 7.75055 5.09379 7.54899 6.79568V7.05124L3.5321 7.0222ZM27.2243 27.2984H1.77434L4.03349 8.16059H24.9651V8.41615L27.2243 27.2984ZM2.44287 26.7176H26.5903L24.4522 8.74141H4.5464L2.44287 26.7176ZM20.2509 7.0222H8.64398L8.69585 6.68533C8.90519 5.29992 9.6002 4.03597 10.6549 3.12267C11.7095 2.20938 13.054 1.7072 14.4446 1.7072C15.8351 1.7072 17.1796 2.20938 18.2342 3.12267C19.2889 4.03597 19.9839 5.29992 20.1933 6.68533L20.2509 7.0222ZM9.33555 6.44139H19.5939C19.3361 5.2679 18.6886 4.21821 17.7586 3.46579C16.8286 2.71338 15.6717 2.30328 14.4791 2.30328C13.2865 2.30328 12.1296 2.71338 11.1996 3.46579C10.2696 4.21821 9.62222 5.2679 9.36437 6.44139H9.33555Z" fill="#352166"/>
</g>
<defs>
<clipPath id="clip0">
<rect width="29" height="29" fill="white"/>
</clipPath>
</defs>
</svg>
