<svg width="30" height="30" viewBox="0 0 30 30" fill="none" xmlns="http://www.w3.org/2000/svg">
<g clip-path="url(#clip0)">
<path d="M1.17945 22.5797C3.87535 20.2351 6.37166 16.9352 6.37166 8.67144C6.44714 6.4231 7.38882 4.2922 8.99794 2.72853C10.6071 1.16486 12.7577 0.290771 14.9959 0.290771C17.2341 0.290771 19.3848 1.16486 20.9939 2.72853C22.603 4.2922 23.5447 6.4231 23.6202 8.67144C23.6202 16.9352 26.123 20.24 28.8222 22.5813C29.191 22.9035 29.4869 23.3013 29.6901 23.748C29.8932 24.1946 29.9989 24.6798 30 25.1709C30 25.4326 29.8966 25.6835 29.7125 25.8685C29.5285 26.0535 29.2788 26.1575 29.0185 26.1575H19.7039C19.4775 27.2429 18.8864 28.2171 18.0298 28.9162C17.1733 29.6154 16.1034 29.997 15 29.997C13.8966 29.997 12.8267 29.6154 11.9702 28.9162C11.1136 28.2171 10.5225 27.2429 10.2961 26.1575H0.981513C0.721199 26.1575 0.471546 26.0535 0.287476 25.8685C0.103407 25.6835 -1.93595e-06 25.4326 -1.93595e-06 25.1709C-0.000643639 24.6791 0.104411 24.193 0.307975 23.7458C0.511538 23.2985 0.80881 22.9008 1.17945 22.5797V22.5797ZM15.0008 28.0269C15.582 28.0262 16.149 27.8467 16.6257 27.5125C17.1024 27.1783 17.4659 26.7054 17.6673 26.1575H12.3327C12.5342 26.7057 12.898 27.1787 13.375 27.5129C13.852 27.8471 14.4194 28.0265 15.0008 28.0269V28.0269ZM27.6509 24.1844C27.6148 24.1451 27.5766 24.1078 27.5364 24.0726C23.4222 20.5014 21.6669 15.896 21.6669 8.67144C21.6669 6.89446 20.9646 5.19026 19.7145 3.93375C18.4643 2.67724 16.7688 1.97134 15.0008 1.97134C13.2329 1.97134 11.5373 2.67724 10.2872 3.93375C9.03702 5.19026 8.33469 6.89446 8.33469 8.67144C8.33469 15.8895 6.57778 20.4948 2.46197 24.0726C2.42181 24.1078 2.38359 24.1451 2.34746 24.1844H27.6509Z" fill="#352166"/>
</g>
<defs>
<clipPath id="clip0">
<rect width="30" height="30" fill="white" transform="matrix(-1 0 0 1 30 0)"/>
</clipPath>
</defs>
</svg>
