<svg width="29" height="29" viewBox="0 0 29 29" fill="none" xmlns="http://www.w3.org/2000/svg">
<g clip-path="url(#clip0)">
<path d="M18.8699 11.7106C21.2995 9.28683 21.3143 5.37197 18.903 2.96647C16.4917 0.56098 12.5673 0.575766 10.1377 2.9995C7.70811 5.42324 7.69329 9.3381 10.1046 11.7436C12.5159 14.1491 16.4403 14.1343 18.8699 11.7106Z" stroke="#352166" stroke-width="2" stroke-linejoin="round"/>
<path d="M20.7185 16.0327C20.4842 15.914 20.2157 15.8806 19.9593 15.9381C19.7029 15.9957 19.4747 16.1406 19.3139 16.348C18.7335 17.0658 17.9993 17.6448 17.1653 18.0426C16.3313 18.4405 15.4186 18.6469 14.4942 18.6469C13.5697 18.6469 12.657 18.4405 11.823 18.0426C10.989 17.6448 10.2549 17.0658 9.6745 16.348C9.49952 16.1357 9.2551 15.9918 8.98425 15.9416C8.71341 15.8914 8.4335 15.9381 8.19378 16.0735C6.2071 17.1351 4.52156 18.6802 3.29372 20.5655C2.06587 22.4508 1.33554 24.6151 1.17057 26.8573C1.16259 26.982 1.18025 27.107 1.22247 27.2247C1.2647 27.3423 1.33059 27.4501 1.41609 27.5414C1.5016 27.6328 1.60492 27.7057 1.71971 27.7557C1.8345 27.8057 1.95832 27.8318 2.08358 27.8323H26.9223C27.0466 27.8294 27.169 27.8016 27.2823 27.7507C27.3957 27.6998 27.4976 27.6267 27.5822 27.5358C27.6667 27.4449 27.7322 27.3381 27.7747 27.2215C27.8171 27.105 27.8358 26.9812 27.8295 26.8573C27.6634 24.599 26.9234 22.4202 25.6793 20.5263C24.4351 18.6324 22.7279 17.0859 20.7185 16.0327V16.0327Z" stroke="#352166" stroke-width="2" stroke-linejoin="round"/>
</g>
<defs>
<clipPath id="clip0">
<rect width="29" height="29" fill="white"/>
</clipPath>
</defs>
</svg>
